<svg width="80" height="38" viewBox="0 0 80 38" fill="none" xmlns="http://www.w3.org/2000/svg">
<path d="M32 21V9L40.05 3L48 9V21H42.15V13.875H37.825V21H32Z" fill="white"/>
<path d="M27.7422 26.4688V35H26.6113V26.4688H27.7422ZM30.7188 30.0137V35H29.6348V28.6602H30.6602L30.7188 30.0137ZM30.4609 31.5898L30.0098 31.5723C30.0137 31.1387 30.0781 30.7383 30.2031 30.3711C30.3281 30 30.5039 29.6777 30.7305 29.4043C30.957 29.1309 31.2266 28.9199 31.5391 28.7715C31.8555 28.6191 32.2051 28.543 32.5879 28.543C32.9004 28.543 33.1816 28.5859 33.4316 28.6719C33.6816 28.7539 33.8945 28.8867 34.0703 29.0703C34.25 29.2539 34.3867 29.4922 34.4805 29.7852C34.5742 30.0742 34.6211 30.4277 34.6211 30.8457V35H33.5312V30.834C33.5312 30.502 33.4824 30.2363 33.3848 30.0371C33.2871 29.834 33.1445 29.6875 32.957 29.5977C32.7695 29.5039 32.5391 29.457 32.2656 29.457C31.9961 29.457 31.75 29.5137 31.5273 29.627C31.3086 29.7402 31.1191 29.8965 30.959 30.0957C30.8027 30.2949 30.6797 30.5234 30.5898 30.7812C30.5039 31.0352 30.4609 31.3047 30.4609 31.5898ZM37.4395 28.6602V35H36.3555V28.6602H37.4395ZM36.3203 27.7344L37.457 26.0117H38.7637L37.1934 27.7344H36.3203ZM41.7812 34.2266C42.0391 34.2266 42.2773 34.1738 42.4961 34.0684C42.7148 33.9629 42.8945 33.8184 43.0352 33.6348C43.1758 33.4473 43.2559 33.2344 43.2754 32.9961H44.3066C44.2871 33.3711 44.1602 33.7207 43.9258 34.0449C43.6953 34.3652 43.3926 34.625 43.0176 34.8242C42.6426 35.0195 42.2305 35.1172 41.7812 35.1172C41.3047 35.1172 40.8887 35.0332 40.5332 34.8652C40.1816 34.6973 39.8887 34.4668 39.6543 34.1738C39.4238 33.8809 39.25 33.5449 39.1328 33.166C39.0195 32.7832 38.9629 32.3789 38.9629 31.9531V31.707C38.9629 31.2812 39.0195 30.8789 39.1328 30.5C39.25 30.1172 39.4238 29.7793 39.6543 29.4863C39.8887 29.1934 40.1816 28.9629 40.5332 28.7949C40.8887 28.627 41.3047 28.543 41.7812 28.543C42.2773 28.543 42.7109 28.6445 43.082 28.8477C43.4531 29.0469 43.7441 29.3203 43.9551 29.668C44.1699 30.0117 44.2871 30.4023 44.3066 30.8398H43.2754C43.2559 30.5781 43.1816 30.3418 43.0527 30.1309C42.9277 29.9199 42.7559 29.752 42.5371 29.627C42.3223 29.498 42.0703 29.4336 41.7812 29.4336C41.4492 29.4336 41.1699 29.5 40.9434 29.6328C40.7207 29.7617 40.543 29.9375 40.4102 30.1602C40.2812 30.3789 40.1875 30.623 40.1289 30.8926C40.0742 31.1582 40.0469 31.4297 40.0469 31.707V31.9531C40.0469 32.2305 40.0742 32.5039 40.1289 32.7734C40.1836 33.043 40.2754 33.2871 40.4043 33.5059C40.5371 33.7246 40.7148 33.9004 40.9375 34.0332C41.1641 34.1621 41.4453 34.2266 41.7812 34.2266ZM46.7031 28.6602V35H45.6133V28.6602H46.7031ZM45.5312 26.9785C45.5312 26.8027 45.584 26.6543 45.6895 26.5332C45.7988 26.4121 45.959 26.3516 46.1699 26.3516C46.377 26.3516 46.5352 26.4121 46.6445 26.5332C46.7578 26.6543 46.8145 26.8027 46.8145 26.9785C46.8145 27.1465 46.7578 27.291 46.6445 27.4121C46.5352 27.5293 46.377 27.5879 46.1699 27.5879C45.959 27.5879 45.7988 27.5293 45.6895 27.4121C45.584 27.291 45.5312 27.1465 45.5312 26.9785ZM48.1562 31.9004V31.7656C48.1562 31.3086 48.2227 30.8848 48.3555 30.4941C48.4883 30.0996 48.6797 29.7578 48.9297 29.4688C49.1797 29.1758 49.4824 28.9492 49.8379 28.7891C50.1934 28.625 50.5918 28.543 51.0332 28.543C51.4785 28.543 51.8789 28.625 52.2344 28.7891C52.5938 28.9492 52.8984 29.1758 53.1484 29.4688C53.4023 29.7578 53.5957 30.0996 53.7285 30.4941C53.8613 30.8848 53.9277 31.3086 53.9277 31.7656V31.9004C53.9277 32.3574 53.8613 32.7812 53.7285 33.1719C53.5957 33.5625 53.4023 33.9043 53.1484 34.1973C52.8984 34.4863 52.5957 34.7129 52.2402 34.877C51.8887 35.0371 51.4902 35.1172 51.0449 35.1172C50.5996 35.1172 50.1992 35.0371 49.8438 34.877C49.4883 34.7129 49.1836 34.4863 48.9297 34.1973C48.6797 33.9043 48.4883 33.5625 48.3555 33.1719C48.2227 32.7812 48.1562 32.3574 48.1562 31.9004ZM49.2402 31.7656V31.9004C49.2402 32.2168 49.2773 32.5156 49.3516 32.7969C49.4258 33.0742 49.5371 33.3203 49.6855 33.5352C49.8379 33.75 50.0273 33.9199 50.2539 34.0449C50.4805 34.166 50.7441 34.2266 51.0449 34.2266C51.3418 34.2266 51.6016 34.166 51.8242 34.0449C52.0508 33.9199 52.2383 33.75 52.3867 33.5352C52.5352 33.3203 52.6465 33.0742 52.7207 32.7969C52.7988 32.5156 52.8379 32.2168 52.8379 31.9004V31.7656C52.8379 31.4531 52.7988 31.1582 52.7207 30.8809C52.6465 30.5996 52.5332 30.3516 52.3809 30.1367C52.2324 29.918 52.0449 29.7461 51.8184 29.6211C51.5957 29.4961 51.334 29.4336 51.0332 29.4336C50.7363 29.4336 50.4746 29.4961 50.248 29.6211C50.0254 29.7461 49.8379 29.918 49.6855 30.1367C49.5371 30.3516 49.4258 30.5996 49.3516 30.8809C49.2773 31.1582 49.2402 31.4531 49.2402 31.7656Z" fill="white" fill-opacity="0.9"/>
</svg>
