<svg width="80" height="38" viewBox="0 0 80 38" fill="none" xmlns="http://www.w3.org/2000/svg">
<path d="M36 11C36.2833 11 36.521 10.904 36.713 10.712C36.9043 10.5207 37 10.2833 37 10C37 9.71667 36.9043 9.479 36.713 9.287C36.521 9.09567 36.2833 9 36 9C35.7167 9 35.479 9.09567 35.287 9.287C35.0957 9.479 35 9.71667 35 10C35 10.2833 35.0957 10.5207 35.287 10.712C35.479 10.904 35.7167 11 36 11ZM40 11C40.2833 11 40.521 10.904 40.713 10.712C40.9043 10.5207 41 10.2833 41 10C41 9.71667 40.9043 9.479 40.713 9.287C40.521 9.09567 40.2833 9 40 9C39.7167 9 39.4793 9.09567 39.288 9.287C39.096 9.479 39 9.71667 39 10C39 10.2833 39.096 10.5207 39.288 10.712C39.4793 10.904 39.7167 11 40 11ZM44 11C44.2833 11 44.5207 10.904 44.712 10.712C44.904 10.5207 45 10.2833 45 10C45 9.71667 44.904 9.479 44.712 9.287C44.5207 9.09567 44.2833 9 44 9C43.7167 9 43.4793 9.09567 43.288 9.287C43.096 9.479 43 9.71667 43 10C43 10.2833 43.096 10.5207 43.288 10.712C43.4793 10.904 43.7167 11 44 11ZM30 22V4C30 3.45 30.196 2.979 30.588 2.587C30.9793 2.19567 31.45 2 32 2H48C48.55 2 49.021 2.19567 49.413 2.587C49.8043 2.979 50 3.45 50 4V16C50 16.55 49.8043 17.021 49.413 17.413C49.021 17.8043 48.55 18 48 18H34L30 22Z" fill="white"/>
<path d="M10.2812 26.4688H11.377L14.1719 33.4238L16.9609 26.4688H18.0625L14.5938 35H13.7383L10.2812 26.4688ZM9.92383 26.4688H10.8906L11.0488 31.6719V35H9.92383V26.4688ZM17.4473 26.4688H18.4141V35H17.2891V31.6719L17.4473 26.4688ZM22.8672 35.1172C22.4258 35.1172 22.0254 35.043 21.666 34.8945C21.3105 34.7422 21.0039 34.5293 20.7461 34.2559C20.4922 33.9824 20.2969 33.6582 20.1602 33.2832C20.0234 32.9082 19.9551 32.498 19.9551 32.0527V31.8066C19.9551 31.291 20.0312 30.832 20.1836 30.4297C20.3359 30.0234 20.543 29.6797 20.8047 29.3984C21.0664 29.1172 21.3633 28.9043 21.6953 28.7598C22.0273 28.6152 22.3711 28.543 22.7266 28.543C23.1797 28.543 23.5703 28.6211 23.8984 28.7773C24.2305 28.9336 24.502 29.1523 24.7129 29.4336C24.9238 29.7109 25.0801 30.0391 25.1816 30.418C25.2832 30.793 25.334 31.2031 25.334 31.6484V32.1348H20.5996V31.25H24.25V31.168C24.2344 30.8867 24.1758 30.6133 24.0742 30.3477C23.9766 30.082 23.8203 29.8633 23.6055 29.6914C23.3906 29.5195 23.0977 29.4336 22.7266 29.4336C22.4805 29.4336 22.2539 29.4863 22.0469 29.5918C21.8398 29.6934 21.6621 29.8457 21.5137 30.0488C21.3652 30.252 21.25 30.5 21.168 30.793C21.0859 31.0859 21.0449 31.4238 21.0449 31.8066V32.0527C21.0449 32.3535 21.0859 32.6367 21.168 32.9023C21.2539 33.1641 21.377 33.3945 21.5371 33.5938C21.7012 33.793 21.8984 33.9492 22.1289 34.0625C22.3633 34.1758 22.6289 34.2324 22.9258 34.2324C23.3086 34.2324 23.6328 34.1543 23.8984 33.998C24.1641 33.8418 24.3965 33.6328 24.5957 33.3711L25.252 33.8926C25.1152 34.0996 24.9414 34.2969 24.7305 34.4844C24.5195 34.6719 24.2598 34.8242 23.9512 34.9414C23.6465 35.0586 23.2852 35.1172 22.8672 35.1172ZM27.6836 30.0137V35H26.5996V28.6602H27.625L27.6836 30.0137ZM27.4258 31.5898L26.9746 31.5723C26.9785 31.1387 27.043 30.7383 27.168 30.3711C27.293 30 27.4688 29.6777 27.6953 29.4043C27.9219 29.1309 28.1914 28.9199 28.5039 28.7715C28.8203 28.6191 29.1699 28.543 29.5527 28.543C29.8652 28.543 30.1465 28.5859 30.3965 28.6719C30.6465 28.7539 30.8594 28.8867 31.0352 29.0703C31.2148 29.2539 31.3516 29.4922 31.4453 29.7852C31.5391 30.0742 31.5859 30.4277 31.5859 30.8457V35H30.4961V30.834C30.4961 30.502 30.4473 30.2363 30.3496 30.0371C30.252 29.834 30.1094 29.6875 29.9219 29.5977C29.7344 29.5039 29.5039 29.457 29.2305 29.457C28.9609 29.457 28.7148 29.5137 28.4922 29.627C28.2734 29.7402 28.084 29.8965 27.9238 30.0957C27.7676 30.2949 27.6445 30.5234 27.5547 30.7812C27.4688 31.0352 27.4258 31.3047 27.4258 31.5898ZM36.9238 33.3184C36.9238 33.1621 36.8887 33.0176 36.8184 32.8848C36.752 32.748 36.6133 32.625 36.4023 32.5156C36.1953 32.4023 35.8828 32.3047 35.4648 32.2227C35.1133 32.1484 34.7949 32.0605 34.5098 31.959C34.2285 31.8574 33.9883 31.7344 33.7891 31.5898C33.5938 31.4453 33.4434 31.2754 33.3379 31.0801C33.2324 30.8848 33.1797 30.6562 33.1797 30.3945C33.1797 30.1445 33.2344 29.9082 33.3438 29.6855C33.457 29.4629 33.6152 29.2656 33.8184 29.0938C34.0254 28.9219 34.2734 28.7871 34.5625 28.6895C34.8516 28.5918 35.1738 28.543 35.5293 28.543C36.0371 28.543 36.4707 28.6328 36.8301 28.8125C37.1895 28.9922 37.4648 29.2324 37.6562 29.5332C37.8477 29.8301 37.9434 30.1602 37.9434 30.5234H36.8594C36.8594 30.3477 36.8066 30.1777 36.7012 30.0137C36.5996 29.8457 36.4492 29.707 36.25 29.5977C36.0547 29.4883 35.8145 29.4336 35.5293 29.4336C35.2285 29.4336 34.9844 29.4805 34.7969 29.5742C34.6133 29.6641 34.4785 29.7793 34.3926 29.9199C34.3105 30.0605 34.2695 30.209 34.2695 30.3652C34.2695 30.4824 34.2891 30.5879 34.3281 30.6816C34.3711 30.7715 34.4453 30.8555 34.5508 30.9336C34.6562 31.0078 34.8047 31.0781 34.9961 31.1445C35.1875 31.2109 35.4316 31.2773 35.7285 31.3438C36.248 31.4609 36.6758 31.6016 37.0117 31.7656C37.3477 31.9297 37.5977 32.1309 37.7617 32.3691C37.9258 32.6074 38.0078 32.8965 38.0078 33.2363C38.0078 33.5137 37.9492 33.7676 37.832 33.998C37.7188 34.2285 37.5527 34.4277 37.334 34.5957C37.1191 34.7598 36.8613 34.8887 36.5605 34.9824C36.2637 35.0723 35.9297 35.1172 35.5586 35.1172C35 35.1172 34.5273 35.0176 34.1406 34.8184C33.7539 34.6191 33.4609 34.3613 33.2617 34.0449C33.0625 33.7285 32.9629 33.3945 32.9629 33.043H34.0527C34.0684 33.3398 34.1543 33.5762 34.3105 33.752C34.4668 33.9238 34.6582 34.0469 34.8848 34.1211C35.1113 34.1914 35.3359 34.2266 35.5586 34.2266C35.8555 34.2266 36.1035 34.1875 36.3027 34.1094C36.5059 34.0312 36.6602 33.9238 36.7656 33.7871C36.8711 33.6504 36.9238 33.4941 36.9238 33.3184ZM43.1699 33.916V30.6523C43.1699 30.4023 43.1191 30.1855 43.0176 30.002C42.9199 29.8145 42.7715 29.6699 42.5723 29.5684C42.373 29.4668 42.127 29.416 41.834 29.416C41.5605 29.416 41.3203 29.4629 41.1133 29.5566C40.9102 29.6504 40.75 29.7734 40.6328 29.9258C40.5195 30.0781 40.4629 30.2422 40.4629 30.418H39.3789C39.3789 30.1914 39.4375 29.9668 39.5547 29.7441C39.6719 29.5215 39.8398 29.3203 40.0586 29.1406C40.2812 28.957 40.5469 28.8125 40.8555 28.707C41.168 28.5977 41.5156 28.543 41.8984 28.543C42.3594 28.543 42.7656 28.6211 43.1172 28.7773C43.4727 28.9336 43.75 29.1699 43.9492 29.4863C44.1523 29.7988 44.2539 30.1914 44.2539 30.6641V33.6172C44.2539 33.8281 44.2715 34.0527 44.3066 34.291C44.3457 34.5293 44.4023 34.7344 44.4766 34.9062V35H43.3457C43.291 34.875 43.248 34.709 43.2168 34.502C43.1855 34.291 43.1699 34.0957 43.1699 33.916ZM43.3574 31.1562L43.3691 31.918H42.2734C41.9648 31.918 41.6895 31.9434 41.4473 31.9941C41.2051 32.041 41.002 32.1133 40.8379 32.2109C40.6738 32.3086 40.5488 32.4316 40.4629 32.5801C40.377 32.7246 40.334 32.8945 40.334 33.0898C40.334 33.2891 40.3789 33.4707 40.4688 33.6348C40.5586 33.7988 40.6934 33.9297 40.873 34.0273C41.0566 34.1211 41.2812 34.168 41.5469 34.168C41.8789 34.168 42.1719 34.0977 42.4258 33.957C42.6797 33.8164 42.8809 33.6445 43.0293 33.4414C43.1816 33.2383 43.2637 33.041 43.2754 32.8496L43.7383 33.3711C43.7109 33.5352 43.6367 33.7168 43.5156 33.916C43.3945 34.1152 43.2324 34.3066 43.0293 34.4902C42.8301 34.6699 42.5918 34.8203 42.3145 34.9414C42.041 35.0586 41.7324 35.1172 41.3887 35.1172C40.959 35.1172 40.582 35.0332 40.2578 34.8652C39.9375 34.6973 39.6875 34.4727 39.5078 34.1914C39.332 33.9062 39.2441 33.5879 39.2441 33.2363C39.2441 32.8965 39.3105 32.5977 39.4434 32.3398C39.5762 32.0781 39.7676 31.8613 40.0176 31.6895C40.2676 31.5137 40.5684 31.3809 40.9199 31.291C41.2715 31.2012 41.6641 31.1562 42.0977 31.1562H43.3574ZM50.0664 28.6602H51.0508V34.8652C51.0508 35.4238 50.9375 35.9004 50.7109 36.2949C50.4844 36.6895 50.168 36.9883 49.7617 37.1914C49.3594 37.3984 48.8945 37.502 48.3672 37.502C48.1484 37.502 47.8906 37.4668 47.5938 37.3965C47.3008 37.3301 47.0117 37.2148 46.7266 37.0508C46.4453 36.8906 46.209 36.6738 46.0176 36.4004L46.5859 35.7559C46.8516 36.0762 47.1289 36.2988 47.418 36.4238C47.7109 36.5488 48 36.6113 48.2852 36.6113C48.6289 36.6113 48.9258 36.5469 49.1758 36.418C49.4258 36.2891 49.6191 36.0977 49.7559 35.8438C49.8965 35.5938 49.9668 35.2852 49.9668 34.918V30.0547L50.0664 28.6602ZM45.7012 31.9004V31.7773C45.7012 31.293 45.7578 30.8535 45.8711 30.459C45.9883 30.0605 46.1543 29.7188 46.3691 29.4336C46.5879 29.1484 46.8516 28.9297 47.1602 28.7773C47.4688 28.6211 47.8164 28.543 48.2031 28.543C48.6016 28.543 48.9492 28.6133 49.2461 28.7539C49.5469 28.8906 49.8008 29.0918 50.0078 29.3574C50.2188 29.6191 50.3848 29.9355 50.5059 30.3066C50.627 30.6777 50.7109 31.0977 50.7578 31.5664V32.1055C50.7148 32.5703 50.6309 32.9883 50.5059 33.3594C50.3848 33.7305 50.2188 34.0469 50.0078 34.3086C49.8008 34.5703 49.5469 34.7715 49.2461 34.9121C48.9453 35.0488 48.5938 35.1172 48.1914 35.1172C47.8125 35.1172 47.4688 35.0371 47.1602 34.877C46.8555 34.7168 46.5938 34.4922 46.375 34.2031C46.1562 33.9141 45.9883 33.5742 45.8711 33.1836C45.7578 32.7891 45.7012 32.3613 45.7012 31.9004ZM46.7852 31.7773V31.9004C46.7852 32.2168 46.8164 32.5137 46.8789 32.791C46.9453 33.0684 47.0449 33.3125 47.1777 33.5234C47.3145 33.7344 47.4883 33.9004 47.6992 34.0215C47.9102 34.1387 48.1621 34.1973 48.4551 34.1973C48.8145 34.1973 49.1113 34.1211 49.3457 33.9688C49.5801 33.8164 49.7656 33.6152 49.9023 33.3652C50.043 33.1152 50.1523 32.8438 50.2305 32.5508V31.1387C50.1875 30.9238 50.1211 30.7168 50.0312 30.5176C49.9453 30.3145 49.832 30.1348 49.6914 29.9785C49.5547 29.8184 49.3848 29.6914 49.1816 29.5977C48.9785 29.5039 48.7402 29.457 48.4668 29.457C48.1699 29.457 47.9141 29.5195 47.6992 29.6445C47.4883 29.7656 47.3145 29.9336 47.1777 30.1484C47.0449 30.3594 46.9453 30.6055 46.8789 30.8867C46.8164 31.1641 46.7852 31.4609 46.7852 31.7773ZM55.3281 35.1172C54.8867 35.1172 54.4863 35.043 54.127 34.8945C53.7715 34.7422 53.4648 34.5293 53.207 34.2559C52.9531 33.9824 52.7578 33.6582 52.6211 33.2832C52.4844 32.9082 52.416 32.498 52.416 32.0527V31.8066C52.416 31.291 52.4922 30.832 52.6445 30.4297C52.7969 30.0234 53.0039 29.6797 53.2656 29.3984C53.5273 29.1172 53.8242 28.9043 54.1562 28.7598C54.4883 28.6152 54.832 28.543 55.1875 28.543C55.6406 28.543 56.0312 28.6211 56.3594 28.7773C56.6914 28.9336 56.9629 29.1523 57.1738 29.4336C57.3848 29.7109 57.541 30.0391 57.6426 30.418C57.7441 30.793 57.7949 31.2031 57.7949 31.6484V32.1348H53.0605V31.25H56.7109V31.168C56.6953 30.8867 56.6367 30.6133 56.5352 30.3477C56.4375 30.082 56.2812 29.8633 56.0664 29.6914C55.8516 29.5195 55.5586 29.4336 55.1875 29.4336C54.9414 29.4336 54.7148 29.4863 54.5078 29.5918C54.3008 29.6934 54.123 29.8457 53.9746 30.0488C53.8262 30.252 53.7109 30.5 53.6289 30.793C53.5469 31.0859 53.5059 31.4238 53.5059 31.8066V32.0527C53.5059 32.3535 53.5469 32.6367 53.6289 32.9023C53.7148 33.1641 53.8379 33.3945 53.998 33.5938C54.1621 33.793 54.3594 33.9492 54.5898 34.0625C54.8242 34.1758 55.0898 34.2324 55.3867 34.2324C55.7695 34.2324 56.0938 34.1543 56.3594 33.998C56.625 33.8418 56.8574 33.6328 57.0566 33.3711L57.7129 33.8926C57.5762 34.0996 57.4023 34.2969 57.1914 34.4844C56.9805 34.6719 56.7207 34.8242 56.4121 34.9414C56.1074 35.0586 55.7461 35.1172 55.3281 35.1172ZM60.1445 30.0137V35H59.0605V28.6602H60.0859L60.1445 30.0137ZM59.8867 31.5898L59.4355 31.5723C59.4395 31.1387 59.5039 30.7383 59.6289 30.3711C59.7539 30 59.9297 29.6777 60.1562 29.4043C60.3828 29.1309 60.6523 28.9199 60.9648 28.7715C61.2812 28.6191 61.6309 28.543 62.0137 28.543C62.3262 28.543 62.6074 28.5859 62.8574 28.6719C63.1074 28.7539 63.3203 28.8867 63.4961 29.0703C63.6758 29.2539 63.8125 29.4922 63.9062 29.7852C64 30.0742 64.0469 30.4277 64.0469 30.8457V35H62.957V30.834C62.957 30.502 62.9082 30.2363 62.8105 30.0371C62.7129 29.834 62.5703 29.6875 62.3828 29.5977C62.1953 29.5039 61.9648 29.457 61.6914 29.457C61.4219 29.457 61.1758 29.5137 60.9531 29.627C60.7344 29.7402 60.5449 29.8965 60.3848 30.0957C60.2285 30.2949 60.1055 30.5234 60.0156 30.7812C59.9297 31.0352 59.8867 31.3047 59.8867 31.5898ZM69.3848 33.3184C69.3848 33.1621 69.3496 33.0176 69.2793 32.8848C69.2129 32.748 69.0742 32.625 68.8633 32.5156C68.6562 32.4023 68.3438 32.3047 67.9258 32.2227C67.5742 32.1484 67.2559 32.0605 66.9707 31.959C66.6895 31.8574 66.4492 31.7344 66.25 31.5898C66.0547 31.4453 65.9043 31.2754 65.7988 31.0801C65.6934 30.8848 65.6406 30.6562 65.6406 30.3945C65.6406 30.1445 65.6953 29.9082 65.8047 29.6855C65.918 29.4629 66.0762 29.2656 66.2793 29.0938C66.4863 28.9219 66.7344 28.7871 67.0234 28.6895C67.3125 28.5918 67.6348 28.543 67.9902 28.543C68.498 28.543 68.9316 28.6328 69.291 28.8125C69.6504 28.9922 69.9258 29.2324 70.1172 29.5332C70.3086 29.8301 70.4043 30.1602 70.4043 30.5234H69.3203C69.3203 30.3477 69.2676 30.1777 69.1621 30.0137C69.0605 29.8457 68.9102 29.707 68.7109 29.5977C68.5156 29.4883 68.2754 29.4336 67.9902 29.4336C67.6895 29.4336 67.4453 29.4805 67.2578 29.5742C67.0742 29.6641 66.9395 29.7793 66.8535 29.9199C66.7715 30.0605 66.7305 30.209 66.7305 30.3652C66.7305 30.4824 66.75 30.5879 66.7891 30.6816C66.832 30.7715 66.9062 30.8555 67.0117 30.9336C67.1172 31.0078 67.2656 31.0781 67.457 31.1445C67.6484 31.2109 67.8926 31.2773 68.1895 31.3438C68.709 31.4609 69.1367 31.6016 69.4727 31.7656C69.8086 31.9297 70.0586 32.1309 70.2227 32.3691C70.3867 32.6074 70.4688 32.8965 70.4688 33.2363C70.4688 33.5137 70.4102 33.7676 70.293 33.998C70.1797 34.2285 70.0137 34.4277 69.7949 34.5957C69.5801 34.7598 69.3223 34.8887 69.0215 34.9824C68.7246 35.0723 68.3906 35.1172 68.0195 35.1172C67.4609 35.1172 66.9883 35.0176 66.6016 34.8184C66.2148 34.6191 65.9219 34.3613 65.7227 34.0449C65.5234 33.7285 65.4238 33.3945 65.4238 33.043H66.5137C66.5293 33.3398 66.6152 33.5762 66.7715 33.752C66.9277 33.9238 67.1191 34.0469 67.3457 34.1211C67.5723 34.1914 67.7969 34.2266 68.0195 34.2266C68.3164 34.2266 68.5645 34.1875 68.7637 34.1094C68.9668 34.0312 69.1211 33.9238 69.2266 33.7871C69.332 33.6504 69.3848 33.4941 69.3848 33.3184Z" fill="white" fill-opacity="0.9"/>
</svg>
