<svg width="80" height="38" viewBox="0 0 80 38" fill="none" xmlns="http://www.w3.org/2000/svg">
<path d="M29 20V17.2C29 16.6333 29.146 16.1123 29.438 15.637C29.7293 15.1623 30.1167 14.8 30.6 14.55C31.6333 14.0333 32.6833 13.6457 33.75 13.387C34.8167 13.129 35.9 13 37 13C38.1 13 39.1833 13.129 40.25 13.387C41.3167 13.6457 42.3667 14.0333 43.4 14.55C43.8833 14.8 44.2707 15.1623 44.562 15.637C44.854 16.1123 45 16.6333 45 17.2V20H29ZM37 12C35.9 12 34.9583 11.6083 34.175 10.825C33.3917 10.0417 33 9.1 33 8C33 6.9 33.3917 5.95833 34.175 5.175C34.9583 4.39167 35.9 4 37 4C38.1 4 39.0417 4.39167 39.825 5.175C40.6083 5.95833 41 6.9 41 8C41 9.1 40.6083 10.0417 39.825 10.825C39.0417 11.6083 38.1 12 37 12ZM47 8C47 9.1 46.6083 10.0417 45.825 10.825C45.0417 11.6083 44.1 12 43 12C42.8167 12 42.5833 11.9793 42.3 11.938C42.0167 11.896 41.7833 11.85 41.6 11.8C42.05 11.2667 42.3957 10.675 42.637 10.025C42.879 9.375 43 8.7 43 8C43 7.3 42.879 6.625 42.637 5.975C42.3957 5.325 42.05 4.73333 41.6 4.2C41.8333 4.11667 42.0667 4.06233 42.3 4.037C42.5333 4.01233 42.7667 4 43 4C44.1 4 45.0417 4.39167 45.825 5.175C46.6083 5.95833 47 6.9 47 8ZM47 20V17C47 16.2667 46.796 15.5623 46.388 14.887C45.9793 14.2123 45.4 13.6333 44.65 13.15C45.5 13.25 46.3 13.4207 47.05 13.662C47.8 13.904 48.5 14.2 49.15 14.55C49.75 14.8833 50.2083 15.254 50.525 15.662C50.8417 16.0707 51 16.5167 51 17V20H47Z" fill="white"/>
<path d="M11.5527 26.4688H12.6484L15.4434 33.4238L18.2324 26.4688H19.334L15.8652 35H15.0098L11.5527 26.4688ZM11.1953 26.4688H12.1621L12.3203 31.6719V35H11.1953V26.4688ZM18.7188 26.4688H19.6855V35H18.5605V31.6719L18.7188 26.4688ZM22.6855 28.6602V35H21.5957V28.6602H22.6855ZM21.5137 26.9785C21.5137 26.8027 21.5664 26.6543 21.6719 26.5332C21.7812 26.4121 21.9414 26.3516 22.1523 26.3516C22.3594 26.3516 22.5176 26.4121 22.627 26.5332C22.7402 26.6543 22.7969 26.8027 22.7969 26.9785C22.7969 27.1465 22.7402 27.291 22.627 27.4121C22.5176 27.5293 22.3594 27.5879 22.1523 27.5879C21.9414 27.5879 21.7812 27.5293 21.6719 27.4121C21.5664 27.291 21.5137 27.1465 21.5137 26.9785ZM25.5098 30.0137V35H24.4258V28.6602H25.4512L25.5098 30.0137ZM25.252 31.5898L24.8008 31.5723C24.8047 31.1387 24.8691 30.7383 24.9941 30.3711C25.1191 30 25.2949 29.6777 25.5215 29.4043C25.748 29.1309 26.0176 28.9199 26.3301 28.7715C26.6465 28.6191 26.9961 28.543 27.3789 28.543C27.6914 28.543 27.9727 28.5859 28.2227 28.6719C28.4727 28.7539 28.6855 28.8867 28.8613 29.0703C29.041 29.2539 29.1777 29.4922 29.2715 29.7852C29.3652 30.0742 29.4121 30.4277 29.4121 30.8457V35H28.3223V30.834C28.3223 30.502 28.2734 30.2363 28.1758 30.0371C28.0781 29.834 27.9355 29.6875 27.748 29.5977C27.5605 29.5039 27.3301 29.457 27.0566 29.457C26.7871 29.457 26.541 29.5137 26.3184 29.627C26.0996 29.7402 25.9102 29.8965 25.75 30.0957C25.5938 30.2949 25.4707 30.5234 25.3809 30.7812C25.2949 31.0352 25.252 31.3047 25.252 31.5898ZM32.1426 26V35H31.0586V26H32.1426ZM31.8848 31.5898L31.4336 31.5723C31.4375 31.1387 31.502 30.7383 31.627 30.3711C31.752 30 31.9277 29.6777 32.1543 29.4043C32.3809 29.1309 32.6504 28.9199 32.9629 28.7715C33.2793 28.6191 33.6289 28.543 34.0117 28.543C34.3242 28.543 34.6055 28.5859 34.8555 28.6719C35.1055 28.7539 35.3184 28.8867 35.4941 29.0703C35.6738 29.2539 35.8105 29.4922 35.9043 29.7852C35.998 30.0742 36.0449 30.4277 36.0449 30.8457V35H34.9551V30.834C34.9551 30.502 34.9062 30.2363 34.8086 30.0371C34.7109 29.834 34.5684 29.6875 34.3809 29.5977C34.1934 29.5039 33.9629 29.457 33.6895 29.457C33.4199 29.457 33.1738 29.5137 32.9512 29.627C32.7324 29.7402 32.543 29.8965 32.3828 30.0957C32.2266 30.2949 32.1035 30.5234 32.0137 30.7812C31.9277 31.0352 31.8848 31.3047 31.8848 31.5898ZM41.4062 33.916V30.6523C41.4062 30.4023 41.3555 30.1855 41.2539 30.002C41.1562 29.8145 41.0078 29.6699 40.8086 29.5684C40.6094 29.4668 40.3633 29.416 40.0703 29.416C39.7969 29.416 39.5566 29.4629 39.3496 29.5566C39.1465 29.6504 38.9863 29.7734 38.8691 29.9258C38.7559 30.0781 38.6992 30.2422 38.6992 30.418H37.6152C37.6152 30.1914 37.6738 29.9668 37.791 29.7441C37.9082 29.5215 38.0762 29.3203 38.2949 29.1406C38.5176 28.957 38.7832 28.8125 39.0918 28.707C39.4043 28.5977 39.752 28.543 40.1348 28.543C40.5957 28.543 41.002 28.6211 41.3535 28.7773C41.709 28.9336 41.9863 29.1699 42.1855 29.4863C42.3887 29.7988 42.4902 30.1914 42.4902 30.6641V33.6172C42.4902 33.8281 42.5078 34.0527 42.543 34.291C42.582 34.5293 42.6387 34.7344 42.7129 34.9062V35H41.582C41.5273 34.875 41.4844 34.709 41.4531 34.502C41.4219 34.291 41.4062 34.0957 41.4062 33.916ZM41.5938 31.1562L41.6055 31.918H40.5098C40.2012 31.918 39.9258 31.9434 39.6836 31.9941C39.4414 32.041 39.2383 32.1133 39.0742 32.2109C38.9102 32.3086 38.7852 32.4316 38.6992 32.5801C38.6133 32.7246 38.5703 32.8945 38.5703 33.0898C38.5703 33.2891 38.6152 33.4707 38.7051 33.6348C38.7949 33.7988 38.9297 33.9297 39.1094 34.0273C39.293 34.1211 39.5176 34.168 39.7832 34.168C40.1152 34.168 40.4082 34.0977 40.6621 33.957C40.916 33.8164 41.1172 33.6445 41.2656 33.4414C41.418 33.2383 41.5 33.041 41.5117 32.8496L41.9746 33.3711C41.9473 33.5352 41.873 33.7168 41.752 33.916C41.6309 34.1152 41.4688 34.3066 41.2656 34.4902C41.0664 34.6699 40.8281 34.8203 40.5508 34.9414C40.2773 35.0586 39.9688 35.1172 39.625 35.1172C39.1953 35.1172 38.8184 35.0332 38.4941 34.8652C38.1738 34.6973 37.9238 34.4727 37.7441 34.1914C37.5684 33.9062 37.4805 33.5879 37.4805 33.2363C37.4805 32.8965 37.5469 32.5977 37.6797 32.3398C37.8125 32.0781 38.0039 31.8613 38.2539 31.6895C38.5039 31.5137 38.8047 31.3809 39.1562 31.291C39.5078 31.2012 39.9004 31.1562 40.334 31.1562H41.5938ZM48.2559 29.6562V35H47.1719V28.6602H48.2266L48.2559 29.6562ZM50.2363 28.625L50.2305 29.6328C50.1406 29.6133 50.0547 29.6016 49.9727 29.5977C49.8945 29.5898 49.8047 29.5859 49.7031 29.5859C49.4531 29.5859 49.2324 29.625 49.041 29.7031C48.8496 29.7812 48.6875 29.8906 48.5547 30.0312C48.4219 30.1719 48.3164 30.3398 48.2383 30.5352C48.1641 30.7266 48.1152 30.9375 48.0918 31.168L47.7871 31.3438C47.7871 30.9609 47.8242 30.6016 47.8984 30.2656C47.9766 29.9297 48.0957 29.6328 48.2559 29.375C48.416 29.1133 48.6191 28.9102 48.8652 28.7656C49.1152 28.6172 49.4121 28.543 49.7559 28.543C49.834 28.543 49.9238 28.5527 50.0254 28.5723C50.127 28.5879 50.1973 28.6055 50.2363 28.625ZM53.752 35.1172C53.3105 35.1172 52.9102 35.043 52.5508 34.8945C52.1953 34.7422 51.8887 34.5293 51.6309 34.2559C51.377 33.9824 51.1816 33.6582 51.0449 33.2832C50.9082 32.9082 50.8398 32.498 50.8398 32.0527V31.8066C50.8398 31.291 50.916 30.832 51.0684 30.4297C51.2207 30.0234 51.4277 29.6797 51.6895 29.3984C51.9512 29.1172 52.248 28.9043 52.5801 28.7598C52.9121 28.6152 53.2559 28.543 53.6113 28.543C54.0645 28.543 54.4551 28.6211 54.7832 28.7773C55.1152 28.9336 55.3867 29.1523 55.5977 29.4336C55.8086 29.7109 55.9648 30.0391 56.0664 30.418C56.168 30.793 56.2188 31.2031 56.2188 31.6484V32.1348H51.4844V31.25H55.1348V31.168C55.1191 30.8867 55.0605 30.6133 54.959 30.3477C54.8613 30.082 54.7051 29.8633 54.4902 29.6914C54.2754 29.5195 53.9824 29.4336 53.6113 29.4336C53.3652 29.4336 53.1387 29.4863 52.9316 29.5918C52.7246 29.6934 52.5469 29.8457 52.3984 30.0488C52.25 30.252 52.1348 30.5 52.0527 30.793C51.9707 31.0859 51.9297 31.4238 51.9297 31.8066V32.0527C51.9297 32.3535 51.9707 32.6367 52.0527 32.9023C52.1387 33.1641 52.2617 33.3945 52.4219 33.5938C52.5859 33.793 52.7832 33.9492 53.0137 34.0625C53.248 34.1758 53.5137 34.2324 53.8105 34.2324C54.1934 34.2324 54.5176 34.1543 54.7832 33.998C55.0488 33.8418 55.2812 33.6328 55.4805 33.3711L56.1367 33.8926C56 34.0996 55.8262 34.2969 55.6152 34.4844C55.4043 34.6719 55.1445 34.8242 54.8359 34.9414C54.5312 35.0586 54.1699 35.1172 53.752 35.1172ZM61.4805 33.7695V26H62.5703V35H61.5742L61.4805 33.7695ZM57.2148 31.9004V31.7773C57.2148 31.293 57.2734 30.8535 57.3906 30.459C57.5117 30.0605 57.6816 29.7188 57.9004 29.4336C58.123 29.1484 58.3867 28.9297 58.6914 28.7773C59 28.6211 59.3438 28.543 59.7227 28.543C60.1211 28.543 60.4688 28.6133 60.7656 28.7539C61.0664 28.8906 61.3203 29.0918 61.5273 29.3574C61.7383 29.6191 61.9043 29.9355 62.0254 30.3066C62.1465 30.6777 62.2305 31.0977 62.2773 31.5664V32.1055C62.2344 32.5703 62.1504 32.9883 62.0254 33.3594C61.9043 33.7305 61.7383 34.0469 61.5273 34.3086C61.3203 34.5703 61.0664 34.7715 60.7656 34.9121C60.4648 35.0488 60.1133 35.1172 59.7109 35.1172C59.3398 35.1172 59 35.0371 58.6914 34.877C58.3867 34.7168 58.123 34.4922 57.9004 34.2031C57.6816 33.9141 57.5117 33.5742 57.3906 33.1836C57.2734 32.7891 57.2148 32.3613 57.2148 31.9004ZM58.3047 31.7773V31.9004C58.3047 32.2168 58.3359 32.5137 58.3984 32.791C58.4648 33.0684 58.5664 33.3125 58.7031 33.5234C58.8398 33.7344 59.0137 33.9004 59.2246 34.0215C59.4355 34.1387 59.6875 34.1973 59.9805 34.1973C60.3398 34.1973 60.6348 34.1211 60.8652 33.9688C61.0996 33.8164 61.2871 33.6152 61.4277 33.3652C61.5684 33.1152 61.6777 32.8438 61.7559 32.5508V31.1387C61.709 30.9238 61.6406 30.7168 61.5508 30.5176C61.4648 30.3145 61.3516 30.1348 61.2109 29.9785C61.0742 29.8184 60.9043 29.6914 60.7012 29.5977C60.502 29.5039 60.2656 29.457 59.9922 29.457C59.6953 29.457 59.4395 29.5195 59.2246 29.6445C59.0137 29.7656 58.8398 29.9336 58.7031 30.1484C58.5664 30.3594 58.4648 30.6055 58.3984 30.8867C58.3359 31.1641 58.3047 31.4609 58.3047 31.7773ZM66.8887 35.1172C66.4473 35.1172 66.0469 35.043 65.6875 34.8945C65.332 34.7422 65.0254 34.5293 64.7676 34.2559C64.5137 33.9824 64.3184 33.6582 64.1816 33.2832C64.0449 32.9082 63.9766 32.498 63.9766 32.0527V31.8066C63.9766 31.291 64.0527 30.832 64.2051 30.4297C64.3574 30.0234 64.5645 29.6797 64.8262 29.3984C65.0879 29.1172 65.3848 28.9043 65.7168 28.7598C66.0488 28.6152 66.3926 28.543 66.748 28.543C67.2012 28.543 67.5918 28.6211 67.9199 28.7773C68.252 28.9336 68.5234 29.1523 68.7344 29.4336C68.9453 29.7109 69.1016 30.0391 69.2031 30.418C69.3047 30.793 69.3555 31.2031 69.3555 31.6484V32.1348H64.6211V31.25H68.2715V31.168C68.2559 30.8867 68.1973 30.6133 68.0957 30.3477C67.998 30.082 67.8418 29.8633 67.627 29.6914C67.4121 29.5195 67.1191 29.4336 66.748 29.4336C66.502 29.4336 66.2754 29.4863 66.0684 29.5918C65.8613 29.6934 65.6836 29.8457 65.5352 30.0488C65.3867 30.252 65.2715 30.5 65.1895 30.793C65.1074 31.0859 65.0664 31.4238 65.0664 31.8066V32.0527C65.0664 32.3535 65.1074 32.6367 65.1895 32.9023C65.2754 33.1641 65.3984 33.3945 65.5586 33.5938C65.7227 33.793 65.9199 33.9492 66.1504 34.0625C66.3848 34.1758 66.6504 34.2324 66.9473 34.2324C67.3301 34.2324 67.6543 34.1543 67.9199 33.998C68.1855 33.8418 68.418 33.6328 68.6172 33.3711L69.2734 33.8926C69.1367 34.0996 68.9629 34.2969 68.752 34.4844C68.541 34.6719 68.2812 34.8242 67.9727 34.9414C67.668 35.0586 67.3066 35.1172 66.8887 35.1172Z" fill="white" fill-opacity="0.9"/>
</svg>
