<svg width="80" height="38" viewBox="0 0 80 38" fill="none" xmlns="http://www.w3.org/2000/svg">
<path d="M13.8496 26.4688V35H12.7129L8.41797 28.4199V35H7.28711V26.4688H8.41797L12.7305 33.0664V26.4688H13.8496ZM15.4023 31.9004V31.7656C15.4023 31.3086 15.4688 30.8848 15.6016 30.4941C15.7344 30.0996 15.9258 29.7578 16.1758 29.4688C16.4258 29.1758 16.7285 28.9492 17.084 28.7891C17.4395 28.625 17.8379 28.543 18.2793 28.543C18.7246 28.543 19.125 28.625 19.4805 28.7891C19.8398 28.9492 20.1445 29.1758 20.3945 29.4688C20.6484 29.7578 20.8418 30.0996 20.9746 30.4941C21.1074 30.8848 21.1738 31.3086 21.1738 31.7656V31.9004C21.1738 32.3574 21.1074 32.7812 20.9746 33.1719C20.8418 33.5625 20.6484 33.9043 20.3945 34.1973C20.1445 34.4863 19.8418 34.7129 19.4863 34.877C19.1348 35.0371 18.7363 35.1172 18.291 35.1172C17.8457 35.1172 17.4453 35.0371 17.0898 34.877C16.7344 34.7129 16.4297 34.4863 16.1758 34.1973C15.9258 33.9043 15.7344 33.5625 15.6016 33.1719C15.4688 32.7812 15.4023 32.3574 15.4023 31.9004ZM16.4863 31.7656V31.9004C16.4863 32.2168 16.5234 32.5156 16.5977 32.7969C16.6719 33.0742 16.7832 33.3203 16.9316 33.5352C17.084 33.75 17.2734 33.9199 17.5 34.0449C17.7266 34.166 17.9902 34.2266 18.291 34.2266C18.5879 34.2266 18.8477 34.166 19.0703 34.0449C19.2969 33.9199 19.4844 33.75 19.6328 33.5352C19.7812 33.3203 19.8926 33.0742 19.9668 32.7969C20.0449 32.5156 20.084 32.2168 20.084 31.9004V31.7656C20.084 31.4531 20.0449 31.1582 19.9668 30.8809C19.8926 30.5996 19.7793 30.3516 19.627 30.1367C19.4785 29.918 19.291 29.7461 19.0645 29.6211C18.8418 29.4961 18.5801 29.4336 18.2793 29.4336C17.9824 29.4336 17.7207 29.4961 17.4941 29.6211C17.2715 29.7461 17.084 29.918 16.9316 30.1367C16.7832 30.3516 16.6719 30.5996 16.5977 30.8809C16.5234 31.1582 16.4863 31.4531 16.4863 31.7656ZM25.1875 28.6602V29.4922H21.7598V28.6602H25.1875ZM22.9199 27.1191H24.0039V33.4297C24.0039 33.6445 24.0371 33.8066 24.1035 33.916C24.1699 34.0254 24.2559 34.0977 24.3613 34.1328C24.4668 34.168 24.5801 34.1855 24.7012 34.1855C24.791 34.1855 24.8848 34.1777 24.9824 34.1621C25.084 34.1426 25.1602 34.127 25.2109 34.1152L25.2168 35C25.1309 35.0273 25.0176 35.0527 24.877 35.0762C24.7402 35.1035 24.5742 35.1172 24.3789 35.1172C24.1133 35.1172 23.8691 35.0645 23.6465 34.959C23.4238 34.8535 23.2461 34.6777 23.1133 34.4316C22.9844 34.1816 22.9199 33.8457 22.9199 33.4238V27.1191ZM27.6367 28.6602V35H26.5469V28.6602H27.6367ZM26.4648 26.9785C26.4648 26.8027 26.5176 26.6543 26.623 26.5332C26.7324 26.4121 26.8926 26.3516 27.1035 26.3516C27.3105 26.3516 27.4688 26.4121 27.5781 26.5332C27.6914 26.6543 27.748 26.8027 27.748 26.9785C27.748 27.1465 27.6914 27.291 27.5781 27.4121C27.4688 27.5293 27.3105 27.5879 27.1035 27.5879C26.8926 27.5879 26.7324 27.5293 26.623 27.4121C26.5176 27.291 26.4648 27.1465 26.4648 26.9785ZM30.8242 35H29.7402V28.1094C29.7402 27.6289 29.834 27.2227 30.0215 26.8906C30.209 26.5586 30.4766 26.3066 30.8242 26.1348C31.1719 25.9629 31.584 25.877 32.0605 25.877C32.3418 25.877 32.6172 25.9121 32.8867 25.9824C33.1562 26.0488 33.4336 26.1328 33.7188 26.2344L33.5371 27.1484C33.3574 27.0781 33.1484 27.0117 32.9102 26.9492C32.6758 26.8828 32.418 26.8496 32.1367 26.8496C31.6719 26.8496 31.3359 26.9551 31.1289 27.166C30.9258 27.373 30.8242 27.6875 30.8242 28.1094V35ZM32.1191 28.6602V29.4922H28.7383V28.6602H32.1191ZM34.252 28.6602V35H33.168V28.6602H34.252ZM38.5703 34.2266C38.8281 34.2266 39.0664 34.1738 39.2852 34.0684C39.5039 33.9629 39.6836 33.8184 39.8242 33.6348C39.9648 33.4473 40.0449 33.2344 40.0645 32.9961H41.0957C41.0762 33.3711 40.9492 33.7207 40.7148 34.0449C40.4844 34.3652 40.1816 34.625 39.8066 34.8242C39.4316 35.0195 39.0195 35.1172 38.5703 35.1172C38.0938 35.1172 37.6777 35.0332 37.3223 34.8652C36.9707 34.6973 36.6777 34.4668 36.4434 34.1738C36.2129 33.8809 36.0391 33.5449 35.9219 33.166C35.8086 32.7832 35.752 32.3789 35.752 31.9531V31.707C35.752 31.2812 35.8086 30.8789 35.9219 30.5C36.0391 30.1172 36.2129 29.7793 36.4434 29.4863C36.6777 29.1934 36.9707 28.9629 37.3223 28.7949C37.6777 28.627 38.0938 28.543 38.5703 28.543C39.0664 28.543 39.5 28.6445 39.8711 28.8477C40.2422 29.0469 40.5332 29.3203 40.7441 29.668C40.959 30.0117 41.0762 30.4023 41.0957 30.8398H40.0645C40.0449 30.5781 39.9707 30.3418 39.8418 30.1309C39.7168 29.9199 39.5449 29.752 39.3262 29.627C39.1113 29.498 38.8594 29.4336 38.5703 29.4336C38.2383 29.4336 37.959 29.5 37.7324 29.6328C37.5098 29.7617 37.332 29.9375 37.1992 30.1602C37.0703 30.3789 36.9766 30.623 36.918 30.8926C36.8633 31.1582 36.8359 31.4297 36.8359 31.707V31.9531C36.8359 32.2305 36.8633 32.5039 36.918 32.7734C36.9727 33.043 37.0645 33.2871 37.1934 33.5059C37.3262 33.7246 37.5039 33.9004 37.7266 34.0332C37.9531 34.1621 38.2344 34.2266 38.5703 34.2266ZM46.0527 33.916V30.6523C46.0527 30.4023 46.002 30.1855 45.9004 30.002C45.8027 29.8145 45.6543 29.6699 45.4551 29.5684C45.2559 29.4668 45.0098 29.416 44.7168 29.416C44.4434 29.416 44.2031 29.4629 43.9961 29.5566C43.793 29.6504 43.6328 29.7734 43.5156 29.9258C43.4023 30.0781 43.3457 30.2422 43.3457 30.418H42.2617C42.2617 30.1914 42.3203 29.9668 42.4375 29.7441C42.5547 29.5215 42.7227 29.3203 42.9414 29.1406C43.1641 28.957 43.4297 28.8125 43.7383 28.707C44.0508 28.5977 44.3984 28.543 44.7812 28.543C45.2422 28.543 45.6484 28.6211 46 28.7773C46.3555 28.9336 46.6328 29.1699 46.832 29.4863C47.0352 29.7988 47.1367 30.1914 47.1367 30.6641V33.6172C47.1367 33.8281 47.1543 34.0527 47.1895 34.291C47.2285 34.5293 47.2852 34.7344 47.3594 34.9062V35H46.2285C46.1738 34.875 46.1309 34.709 46.0996 34.502C46.0684 34.291 46.0527 34.0957 46.0527 33.916ZM46.2402 31.1562L46.252 31.918H45.1562C44.8477 31.918 44.5723 31.9434 44.3301 31.9941C44.0879 32.041 43.8848 32.1133 43.7207 32.2109C43.5566 32.3086 43.4316 32.4316 43.3457 32.5801C43.2598 32.7246 43.2168 32.8945 43.2168 33.0898C43.2168 33.2891 43.2617 33.4707 43.3516 33.6348C43.4414 33.7988 43.5762 33.9297 43.7559 34.0273C43.9395 34.1211 44.1641 34.168 44.4297 34.168C44.7617 34.168 45.0547 34.0977 45.3086 33.957C45.5625 33.8164 45.7637 33.6445 45.9121 33.4414C46.0645 33.2383 46.1465 33.041 46.1582 32.8496L46.6211 33.3711C46.5938 33.5352 46.5195 33.7168 46.3984 33.916C46.2773 34.1152 46.1152 34.3066 45.9121 34.4902C45.7129 34.6699 45.4746 34.8203 45.1973 34.9414C44.9238 35.0586 44.6152 35.1172 44.2715 35.1172C43.8418 35.1172 43.4648 35.0332 43.1406 34.8652C42.8203 34.6973 42.5703 34.4727 42.3906 34.1914C42.2148 33.9062 42.127 33.5879 42.127 33.2363C42.127 32.8965 42.1934 32.5977 42.3262 32.3398C42.459 32.0781 42.6504 31.8613 42.9004 31.6895C43.1504 31.5137 43.4512 31.3809 43.8027 31.291C44.1543 31.2012 44.5469 31.1562 44.9805 31.1562H46.2402ZM51.3789 34.2266C51.6367 34.2266 51.875 34.1738 52.0938 34.0684C52.3125 33.9629 52.4922 33.8184 52.6328 33.6348C52.7734 33.4473 52.8535 33.2344 52.873 32.9961H53.9043C53.8848 33.3711 53.7578 33.7207 53.5234 34.0449C53.293 34.3652 52.9902 34.625 52.6152 34.8242C52.2402 35.0195 51.8281 35.1172 51.3789 35.1172C50.9023 35.1172 50.4863 35.0332 50.1309 34.8652C49.7793 34.6973 49.4863 34.4668 49.252 34.1738C49.0215 33.8809 48.8477 33.5449 48.7305 33.166C48.6172 32.7832 48.5605 32.3789 48.5605 31.9531V31.707C48.5605 31.2812 48.6172 30.8789 48.7305 30.5C48.8477 30.1172 49.0215 29.7793 49.252 29.4863C49.4863 29.1934 49.7793 28.9629 50.1309 28.7949C50.4863 28.627 50.9023 28.543 51.3789 28.543C51.875 28.543 52.3086 28.6445 52.6797 28.8477C53.0508 29.0469 53.3418 29.3203 53.5527 29.668C53.7676 30.0117 53.8848 30.4023 53.9043 30.8398H52.873C52.8535 30.5781 52.7793 30.3418 52.6504 30.1309C52.5254 29.9199 52.3535 29.752 52.1348 29.627C51.9199 29.498 51.668 29.4336 51.3789 29.4336C51.0469 29.4336 50.7676 29.5 50.541 29.6328C50.3184 29.7617 50.1406 29.9375 50.0078 30.1602C49.8789 30.3789 49.7852 30.623 49.7266 30.8926C49.6719 31.1582 49.6445 31.4297 49.6445 31.707V31.9531C49.6445 32.2305 49.6719 32.5039 49.7266 32.7734C49.7812 33.043 49.873 33.2871 50.002 33.5059C50.1348 33.7246 50.3125 33.9004 50.5352 34.0332C50.7617 34.1621 51.043 34.2266 51.3789 34.2266ZM50.7812 35.0586H51.5605L51.4902 35.3691C51.7168 35.4082 51.9219 35.502 52.1055 35.6504C52.293 35.7988 52.3867 36.043 52.3867 36.3828C52.3867 36.5664 52.3477 36.7324 52.2695 36.8809C52.1953 37.0332 52.084 37.1621 51.9355 37.2676C51.7871 37.377 51.6016 37.4609 51.3789 37.5195C51.1602 37.5781 50.9043 37.6074 50.6113 37.6074L50.5703 36.9805C50.75 36.9805 50.9121 36.9609 51.0566 36.9219C51.2051 36.8828 51.3223 36.8203 51.4082 36.7344C51.498 36.6484 51.543 36.5371 51.543 36.4004C51.543 36.2715 51.5098 36.1699 51.4434 36.0957C51.377 36.0215 51.2734 35.9648 51.1328 35.9258C50.9961 35.8906 50.8184 35.8652 50.5996 35.8496L50.7812 35.0586ZM54.8359 31.9004V31.7656C54.8359 31.3086 54.9023 30.8848 55.0352 30.4941C55.168 30.0996 55.3594 29.7578 55.6094 29.4688C55.8594 29.1758 56.1621 28.9492 56.5176 28.7891C56.873 28.625 57.2715 28.543 57.7129 28.543C58.1582 28.543 58.5586 28.625 58.9141 28.7891C59.2734 28.9492 59.5781 29.1758 59.8281 29.4688C60.082 29.7578 60.2754 30.0996 60.4082 30.4941C60.541 30.8848 60.6074 31.3086 60.6074 31.7656V31.9004C60.6074 32.3574 60.541 32.7812 60.4082 33.1719C60.2754 33.5625 60.082 33.9043 59.8281 34.1973C59.5781 34.4863 59.2754 34.7129 58.9199 34.877C58.5684 35.0371 58.1699 35.1172 57.7246 35.1172C57.2793 35.1172 56.8789 35.0371 56.5234 34.877C56.168 34.7129 55.8633 34.4863 55.6094 34.1973C55.3594 33.9043 55.168 33.5625 55.0352 33.1719C54.9023 32.7812 54.8359 32.3574 54.8359 31.9004ZM55.9199 31.7656V31.9004C55.9199 32.2168 55.957 32.5156 56.0312 32.7969C56.1055 33.0742 56.2168 33.3203 56.3652 33.5352C56.5176 33.75 56.707 33.9199 56.9336 34.0449C57.1602 34.166 57.4238 34.2266 57.7246 34.2266C58.0215 34.2266 58.2812 34.166 58.5039 34.0449C58.7305 33.9199 58.918 33.75 59.0664 33.5352C59.2148 33.3203 59.3262 33.0742 59.4004 32.7969C59.4785 32.5156 59.5176 32.2168 59.5176 31.9004V31.7656C59.5176 31.4531 59.4785 31.1582 59.4004 30.8809C59.3262 30.5996 59.2129 30.3516 59.0605 30.1367C58.9121 29.918 58.7246 29.7461 58.498 29.6211C58.2754 29.4961 58.0137 29.4336 57.7129 29.4336C57.416 29.4336 57.1543 29.4961 56.9277 29.6211C56.7051 29.7461 56.5176 29.918 56.3652 30.1367C56.2168 30.3516 56.1055 30.5996 56.0312 30.8809C55.957 31.1582 55.9199 31.4531 55.9199 31.7656ZM59.0137 26.1172L59.7461 26.1816C59.7461 26.4668 59.6895 26.7168 59.5762 26.9316C59.4629 27.1465 59.3105 27.3125 59.1191 27.4297C58.9316 27.5469 58.7188 27.6055 58.4805 27.6055C58.2812 27.6055 58.1172 27.5781 57.9883 27.5234C57.8594 27.4648 57.7441 27.4004 57.6426 27.3301C57.541 27.2559 57.4336 27.1914 57.3203 27.1367C57.2109 27.0781 57.0742 27.0488 56.9102 27.0488C56.7461 27.0488 56.6074 27.1113 56.4941 27.2363C56.3848 27.3613 56.3301 27.5156 56.3301 27.6992L55.5977 27.6641C55.5977 27.3789 55.6523 27.1289 55.7617 26.9141C55.875 26.6953 56.0273 26.5254 56.2188 26.4043C56.4102 26.2793 56.623 26.2168 56.8574 26.2168C57.0254 26.2168 57.1719 26.2461 57.2969 26.3047C57.4258 26.3594 57.5469 26.4238 57.6602 26.498C57.7734 26.5684 57.8906 26.6328 58.0117 26.6914C58.1328 26.7461 58.2715 26.7734 58.4277 26.7734C58.5918 26.7734 58.7305 26.7109 58.8438 26.5859C58.957 26.457 59.0137 26.3008 59.0137 26.1172ZM64.5977 35.1172C64.1562 35.1172 63.7559 35.043 63.3965 34.8945C63.041 34.7422 62.7344 34.5293 62.4766 34.2559C62.2227 33.9824 62.0273 33.6582 61.8906 33.2832C61.7539 32.9082 61.6855 32.498 61.6855 32.0527V31.8066C61.6855 31.291 61.7617 30.832 61.9141 30.4297C62.0664 30.0234 62.2734 29.6797 62.5352 29.3984C62.7969 29.1172 63.0938 28.9043 63.4258 28.7598C63.7578 28.6152 64.1016 28.543 64.457 28.543C64.9102 28.543 65.3008 28.6211 65.6289 28.7773C65.9609 28.9336 66.2324 29.1523 66.4434 29.4336C66.6543 29.7109 66.8105 30.0391 66.9121 30.418C67.0137 30.793 67.0645 31.2031 67.0645 31.6484V32.1348H62.3301V31.25H65.9805V31.168C65.9648 30.8867 65.9062 30.6133 65.8047 30.3477C65.707 30.082 65.5508 29.8633 65.3359 29.6914C65.1211 29.5195 64.8281 29.4336 64.457 29.4336C64.2109 29.4336 63.9844 29.4863 63.7773 29.5918C63.5703 29.6934 63.3926 29.8457 63.2441 30.0488C63.0957 30.252 62.9805 30.5 62.8984 30.793C62.8164 31.0859 62.7754 31.4238 62.7754 31.8066V32.0527C62.7754 32.3535 62.8164 32.6367 62.8984 32.9023C62.9844 33.1641 63.1074 33.3945 63.2676 33.5938C63.4316 33.793 63.6289 33.9492 63.8594 34.0625C64.0938 34.1758 64.3594 34.2324 64.6562 34.2324C65.0391 34.2324 65.3633 34.1543 65.6289 33.998C65.8945 33.8418 66.127 33.6328 66.3262 33.3711L66.9824 33.8926C66.8457 34.0996 66.6719 34.2969 66.4609 34.4844C66.25 34.6719 65.9902 34.8242 65.6816 34.9414C65.377 35.0586 65.0156 35.1172 64.5977 35.1172ZM72.0215 33.3184C72.0215 33.1621 71.9863 33.0176 71.916 32.8848C71.8496 32.748 71.7109 32.625 71.5 32.5156C71.293 32.4023 70.9805 32.3047 70.5625 32.2227C70.2109 32.1484 69.8926 32.0605 69.6074 31.959C69.3262 31.8574 69.0859 31.7344 68.8867 31.5898C68.6914 31.4453 68.541 31.2754 68.4355 31.0801C68.3301 30.8848 68.2773 30.6562 68.2773 30.3945C68.2773 30.1445 68.332 29.9082 68.4414 29.6855C68.5547 29.4629 68.7129 29.2656 68.916 29.0938C69.123 28.9219 69.3711 28.7871 69.6602 28.6895C69.9492 28.5918 70.2715 28.543 70.627 28.543C71.1348 28.543 71.5684 28.6328 71.9277 28.8125C72.2871 28.9922 72.5625 29.2324 72.7539 29.5332C72.9453 29.8301 73.041 30.1602 73.041 30.5234H71.957C71.957 30.3477 71.9043 30.1777 71.7988 30.0137C71.6973 29.8457 71.5469 29.707 71.3477 29.5977C71.1523 29.4883 70.9121 29.4336 70.627 29.4336C70.3262 29.4336 70.082 29.4805 69.8945 29.5742C69.7109 29.6641 69.5762 29.7793 69.4902 29.9199C69.4082 30.0605 69.3672 30.209 69.3672 30.3652C69.3672 30.4824 69.3867 30.5879 69.4258 30.6816C69.4688 30.7715 69.543 30.8555 69.6484 30.9336C69.7539 31.0078 69.9023 31.0781 70.0938 31.1445C70.2852 31.2109 70.5293 31.2773 70.8262 31.3438C71.3457 31.4609 71.7734 31.6016 72.1094 31.7656C72.4453 31.9297 72.6953 32.1309 72.8594 32.3691C73.0234 32.6074 73.1055 32.8965 73.1055 33.2363C73.1055 33.5137 73.0469 33.7676 72.9297 33.998C72.8164 34.2285 72.6504 34.4277 72.4316 34.5957C72.2168 34.7598 71.959 34.8887 71.6582 34.9824C71.3613 35.0723 71.0273 35.1172 70.6562 35.1172C70.0977 35.1172 69.625 35.0176 69.2383 34.8184C68.8516 34.6191 68.5586 34.3613 68.3594 34.0449C68.1602 33.7285 68.0605 33.3945 68.0605 33.043H69.1504C69.166 33.3398 69.252 33.5762 69.4082 33.752C69.5645 33.9238 69.7559 34.0469 69.9824 34.1211C70.209 34.1914 70.4336 34.2266 70.6562 34.2266C70.9531 34.2266 71.2012 34.1875 71.4004 34.1094C71.6035 34.0312 71.7578 33.9238 71.8633 33.7871C71.9688 33.6504 72.0215 33.4941 72.0215 33.3184Z" fill="white" fill-opacity="0.9"/>
<path d="M32 19V17H34V10C34 8.61667 34.4167 7.38733 35.25 6.312C36.0833 5.23733 37.1667 4.53333 38.5 4.2V3.5C38.5 3.08333 38.646 2.72933 38.938 2.438C39.2293 2.146 39.5833 2 40 2C40.4167 2 40.7707 2.146 41.062 2.438C41.354 2.72933 41.5 3.08333 41.5 3.5V4.2C42.8333 4.53333 43.9167 5.23733 44.75 6.312C45.5833 7.38733 46 8.61667 46 10V17H48V19H32ZM40 22C39.45 22 38.9793 21.8043 38.588 21.413C38.196 21.021 38 20.55 38 20H42C42 20.55 41.8043 21.021 41.413 21.413C41.021 21.8043 40.55 22 40 22Z" fill="white"/>
</svg>
