<svg width="80" height="38" viewBox="0 0 80 38" fill="none" xmlns="http://www.w3.org/2000/svg">
<path d="M27.0625 33.7051L29.5762 26.4688H30.8008L27.6426 35H26.7695L27.0625 33.7051ZM24.7129 26.4688L27.2031 33.7051L27.5137 35H26.6406L23.4883 26.4688H24.7129ZM35.2539 33.916V30.6523C35.2539 30.4023 35.2031 30.1855 35.1016 30.002C35.0039 29.8145 34.8555 29.6699 34.6562 29.5684C34.457 29.4668 34.2109 29.416 33.918 29.416C33.6445 29.416 33.4043 29.4629 33.1973 29.5566C32.9941 29.6504 32.834 29.7734 32.7168 29.9258C32.6035 30.0781 32.5469 30.2422 32.5469 30.418H31.4629C31.4629 30.1914 31.5215 29.9668 31.6387 29.7441C31.7559 29.5215 31.9238 29.3203 32.1426 29.1406C32.3652 28.957 32.6309 28.8125 32.9395 28.707C33.252 28.5977 33.5996 28.543 33.9824 28.543C34.4434 28.543 34.8496 28.6211 35.2012 28.7773C35.5566 28.9336 35.834 29.1699 36.0332 29.4863C36.2363 29.7988 36.3379 30.1914 36.3379 30.6641V33.6172C36.3379 33.8281 36.3555 34.0527 36.3906 34.291C36.4297 34.5293 36.4863 34.7344 36.5605 34.9062V35H35.4297C35.375 34.875 35.332 34.709 35.3008 34.502C35.2695 34.291 35.2539 34.0957 35.2539 33.916ZM35.4414 31.1562L35.4531 31.918H34.3574C34.0488 31.918 33.7734 31.9434 33.5312 31.9941C33.2891 32.041 33.0859 32.1133 32.9219 32.2109C32.7578 32.3086 32.6328 32.4316 32.5469 32.5801C32.4609 32.7246 32.418 32.8945 32.418 33.0898C32.418 33.2891 32.4629 33.4707 32.5527 33.6348C32.6426 33.7988 32.7773 33.9297 32.957 34.0273C33.1406 34.1211 33.3652 34.168 33.6309 34.168C33.9629 34.168 34.2559 34.0977 34.5098 33.957C34.7637 33.8164 34.9648 33.6445 35.1133 33.4414C35.2656 33.2383 35.3477 33.041 35.3594 32.8496L35.8223 33.3711C35.7949 33.5352 35.7207 33.7168 35.5996 33.916C35.4785 34.1152 35.3164 34.3066 35.1133 34.4902C34.9141 34.6699 34.6758 34.8203 34.3984 34.9414C34.125 35.0586 33.8164 35.1172 33.4727 35.1172C33.043 35.1172 32.666 35.0332 32.3418 34.8652C32.0215 34.6973 31.7715 34.4727 31.5918 34.1914C31.416 33.9062 31.3281 33.5879 31.3281 33.2363C31.3281 32.8965 31.3945 32.5977 31.5273 32.3398C31.6602 32.0781 31.8516 31.8613 32.1016 31.6895C32.3516 31.5137 32.6523 31.3809 33.0039 31.291C33.3555 31.2012 33.748 31.1562 34.1816 31.1562H35.4414ZM42.1504 28.6602H43.1348V34.8652C43.1348 35.4238 43.0215 35.9004 42.7949 36.2949C42.5684 36.6895 42.252 36.9883 41.8457 37.1914C41.4434 37.3984 40.9785 37.502 40.4512 37.502C40.2324 37.502 39.9746 37.4668 39.6777 37.3965C39.3848 37.3301 39.0957 37.2148 38.8105 37.0508C38.5293 36.8906 38.293 36.6738 38.1016 36.4004L38.6699 35.7559C38.9355 36.0762 39.2129 36.2988 39.502 36.4238C39.7949 36.5488 40.084 36.6113 40.3691 36.6113C40.7129 36.6113 41.0098 36.5469 41.2598 36.418C41.5098 36.2891 41.7031 36.0977 41.8398 35.8438C41.9805 35.5938 42.0508 35.2852 42.0508 34.918V30.0547L42.1504 28.6602ZM37.7852 31.9004V31.7773C37.7852 31.293 37.8418 30.8535 37.9551 30.459C38.0723 30.0605 38.2383 29.7188 38.4531 29.4336C38.6719 29.1484 38.9355 28.9297 39.2441 28.7773C39.5527 28.6211 39.9004 28.543 40.2871 28.543C40.6855 28.543 41.0332 28.6133 41.3301 28.7539C41.6309 28.8906 41.8848 29.0918 42.0918 29.3574C42.3027 29.6191 42.4688 29.9355 42.5898 30.3066C42.7109 30.6777 42.7949 31.0977 42.8418 31.5664V32.1055C42.7988 32.5703 42.7148 32.9883 42.5898 33.3594C42.4688 33.7305 42.3027 34.0469 42.0918 34.3086C41.8848 34.5703 41.6309 34.7715 41.3301 34.9121C41.0293 35.0488 40.6777 35.1172 40.2754 35.1172C39.8965 35.1172 39.5527 35.0371 39.2441 34.877C38.9395 34.7168 38.6777 34.4922 38.459 34.2031C38.2402 33.9141 38.0723 33.5742 37.9551 33.1836C37.8418 32.7891 37.7852 32.3613 37.7852 31.9004ZM38.8691 31.7773V31.9004C38.8691 32.2168 38.9004 32.5137 38.9629 32.791C39.0293 33.0684 39.1289 33.3125 39.2617 33.5234C39.3984 33.7344 39.5723 33.9004 39.7832 34.0215C39.9941 34.1387 40.2461 34.1973 40.5391 34.1973C40.8984 34.1973 41.1953 34.1211 41.4297 33.9688C41.6641 33.8164 41.8496 33.6152 41.9863 33.3652C42.127 33.1152 42.2363 32.8438 42.3145 32.5508V31.1387C42.2715 30.9238 42.2051 30.7168 42.1152 30.5176C42.0293 30.3145 41.916 30.1348 41.7754 29.9785C41.6387 29.8184 41.4688 29.6914 41.2656 29.5977C41.0625 29.5039 40.8242 29.457 40.5508 29.457C40.2539 29.457 39.998 29.5195 39.7832 29.6445C39.5723 29.7656 39.3984 29.9336 39.2617 30.1484C39.1289 30.3594 39.0293 30.6055 38.9629 30.8867C38.9004 31.1641 38.8691 31.4609 38.8691 31.7773ZM48.5195 33.916V30.6523C48.5195 30.4023 48.4688 30.1855 48.3672 30.002C48.2695 29.8145 48.1211 29.6699 47.9219 29.5684C47.7227 29.4668 47.4766 29.416 47.1836 29.416C46.9102 29.416 46.6699 29.4629 46.4629 29.5566C46.2598 29.6504 46.0996 29.7734 45.9824 29.9258C45.8691 30.0781 45.8125 30.2422 45.8125 30.418H44.7285C44.7285 30.1914 44.7871 29.9668 44.9043 29.7441C45.0215 29.5215 45.1895 29.3203 45.4082 29.1406C45.6309 28.957 45.8965 28.8125 46.2051 28.707C46.5176 28.5977 46.8652 28.543 47.248 28.543C47.709 28.543 48.1152 28.6211 48.4668 28.7773C48.8223 28.9336 49.0996 29.1699 49.2988 29.4863C49.502 29.7988 49.6035 30.1914 49.6035 30.6641V33.6172C49.6035 33.8281 49.6211 34.0527 49.6562 34.291C49.6953 34.5293 49.752 34.7344 49.8262 34.9062V35H48.6953C48.6406 34.875 48.5977 34.709 48.5664 34.502C48.5352 34.291 48.5195 34.0957 48.5195 33.916ZM48.707 31.1562L48.7188 31.918H47.623C47.3145 31.918 47.0391 31.9434 46.7969 31.9941C46.5547 32.041 46.3516 32.1133 46.1875 32.2109C46.0234 32.3086 45.8984 32.4316 45.8125 32.5801C45.7266 32.7246 45.6836 32.8945 45.6836 33.0898C45.6836 33.2891 45.7285 33.4707 45.8184 33.6348C45.9082 33.7988 46.043 33.9297 46.2227 34.0273C46.4062 34.1211 46.6309 34.168 46.8965 34.168C47.2285 34.168 47.5215 34.0977 47.7754 33.957C48.0293 33.8164 48.2305 33.6445 48.3789 33.4414C48.5312 33.2383 48.6133 33.041 48.625 32.8496L49.0879 33.3711C49.0605 33.5352 48.9863 33.7168 48.8652 33.916C48.7441 34.1152 48.582 34.3066 48.3789 34.4902C48.1797 34.6699 47.9414 34.8203 47.6641 34.9414C47.3906 35.0586 47.082 35.1172 46.7383 35.1172C46.3086 35.1172 45.9316 35.0332 45.6074 34.8652C45.2871 34.6973 45.0371 34.4727 44.8574 34.1914C44.6816 33.9062 44.5938 33.5879 44.5938 33.2363C44.5938 32.8965 44.6602 32.5977 44.793 32.3398C44.9258 32.0781 45.1172 31.8613 45.3672 31.6895C45.6172 31.5137 45.918 31.3809 46.2695 31.291C46.6211 31.2012 47.0137 31.1562 47.4473 31.1562H48.707ZM55 33.3184C55 33.1621 54.9648 33.0176 54.8945 32.8848C54.8281 32.748 54.6895 32.625 54.4785 32.5156C54.2715 32.4023 53.959 32.3047 53.541 32.2227C53.1895 32.1484 52.8711 32.0605 52.5859 31.959C52.3047 31.8574 52.0645 31.7344 51.8652 31.5898C51.6699 31.4453 51.5195 31.2754 51.4141 31.0801C51.3086 30.8848 51.2559 30.6562 51.2559 30.3945C51.2559 30.1445 51.3105 29.9082 51.4199 29.6855C51.5332 29.4629 51.6914 29.2656 51.8945 29.0938C52.1016 28.9219 52.3496 28.7871 52.6387 28.6895C52.9277 28.5918 53.25 28.543 53.6055 28.543C54.1133 28.543 54.5469 28.6328 54.9062 28.8125C55.2656 28.9922 55.541 29.2324 55.7324 29.5332C55.9238 29.8301 56.0195 30.1602 56.0195 30.5234H54.9355C54.9355 30.3477 54.8828 30.1777 54.7773 30.0137C54.6758 29.8457 54.5254 29.707 54.3262 29.5977C54.1309 29.4883 53.8906 29.4336 53.6055 29.4336C53.3047 29.4336 53.0605 29.4805 52.873 29.5742C52.6895 29.6641 52.5547 29.7793 52.4688 29.9199C52.3867 30.0605 52.3457 30.209 52.3457 30.3652C52.3457 30.4824 52.3652 30.5879 52.4043 30.6816C52.4473 30.7715 52.5215 30.8555 52.627 30.9336C52.7324 31.0078 52.8809 31.0781 53.0723 31.1445C53.2637 31.2109 53.5078 31.2773 53.8047 31.3438C54.3242 31.4609 54.752 31.6016 55.0879 31.7656C55.4238 31.9297 55.6738 32.1309 55.8379 32.3691C56.002 32.6074 56.084 32.8965 56.084 33.2363C56.084 33.5137 56.0254 33.7676 55.9082 33.998C55.7949 34.2285 55.6289 34.4277 55.4102 34.5957C55.1953 34.7598 54.9375 34.8887 54.6367 34.9824C54.3398 35.0723 54.0059 35.1172 53.6348 35.1172C53.0762 35.1172 52.6035 35.0176 52.2168 34.8184C51.8301 34.6191 51.5371 34.3613 51.3379 34.0449C51.1387 33.7285 51.0391 33.3945 51.0391 33.043H52.1289C52.1445 33.3398 52.2305 33.5762 52.3867 33.752C52.543 33.9238 52.7344 34.0469 52.9609 34.1211C53.1875 34.1914 53.4121 34.2266 53.6348 34.2266C53.9316 34.2266 54.1797 34.1875 54.3789 34.1094C54.582 34.0312 54.7363 33.9238 54.8418 33.7871C54.9473 33.6504 55 33.4941 55 33.3184Z" fill="white" fill-opacity="0.9"/>
<path d="M36 6V4C36 3.45 36.196 2.979 36.588 2.587C36.9793 2.19567 37.45 2 38 2H42C42.55 2 43.021 2.19567 43.413 2.587C43.8043 2.979 44 3.45 44 4V6H48C48.55 6 49.021 6.196 49.413 6.588C49.8043 6.97933 50 7.45 50 8V13H43V11H37V13H30V8C30 7.45 30.196 6.97933 30.588 6.588C30.9793 6.196 31.45 6 32 6H36ZM38 6H42V4H38V6ZM39 15V13H41V15H39ZM30 15H37V17H43V15H50V19C50 19.55 49.8043 20.021 49.413 20.413C49.021 20.8043 48.55 21 48 21H32C31.45 21 30.9793 20.8043 30.588 20.413C30.196 20.021 30 19.55 30 19V15Z" fill="white"/>
</svg>
